<svg class="w-full menu-item-icon-svg h-full rounded-full"><svg viewBox="0 0 48 48" fill="none" xmlns="http://www.w3.org/2000/svg"><path d="M24 21.2302L26.4683 22.6299V25.6622L25.8512 23.247L24 21.2302L24 21.2302ZM45.5 24C45.5 25.103 44.6025 26 43.5 26H33.0537L33.5607 26.6608C33.6423 26.7675 33.6607 26.9094 33.6095 27.033L32.9465 28.6335C32.8953 28.7571 32.782 28.8444 32.6488 28.8622L31.5159 29.0115L31.8136 30.1226C31.8482 30.2524 31.8108 30.3905 31.7162 30.4851L30.4912 31.7101C30.3966 31.8047 30.2586 31.842 30.1287 31.8075L29.0249 31.5118L28.8748 32.6523C28.8569 32.7854 28.7695 32.8987 28.646 32.95L27.0454 33.6129C26.9219 33.6641 26.78 33.6457 26.6732 33.5641L25.7666 32.8686L25.1914 33.8647C25.124 33.9809 25 34.0522 24.8662 34.0522H23.1338C23 34.0522 22.876 33.9809 22.8086 33.8647L22.2243 32.853L21.2973 33.5641C21.1907 33.6457 21.0488 33.6641 20.9252 33.6129L19.3246 32.9499C19.2009 32.8987 19.1138 32.7854 19.0959 32.6523L18.9457 31.5118L17.8419 31.8075C17.7121 31.842 17.574 31.8047 17.4793 31.7101L16.2544 30.4851C16.1598 30.3905 16.1225 30.2524 16.157 30.1225L16.4546 29.0115L15.3218 28.8622C15.1886 28.8444 15.0752 28.7571 15.0241 28.6335L14.3611 27.033C14.3099 26.9094 14.3284 26.7675 14.4099 26.6608L14.9169 26H4.5C3.39746 26 2.5 25.103 2.5 24C2.5 22.897 3.39746 22 4.5 22H14.949L14.4211 21.3121C14.3396 21.2053 14.3212 21.0635 14.3723 20.9399L15.0354 19.3393C15.0866 19.2157 15.1999 19.1284 15.333 19.1106L16.4734 18.9604L16.1777 17.8566C16.1433 17.7268 16.1807 17.5887 16.2752 17.4941L17.5002 16.2691C17.5947 16.1745 17.7329 16.1372 17.8628 16.1717L18.9739 16.4693L19.1231 15.3365C19.1409 15.2033 19.2282 15.09 19.3518 15.0388L20.9524 14.3758C21.0759 14.3246 21.2178 14.343 21.3245 14.4246L22.2372 15.1248L22.8086 14.1353C22.876 14.019 23 13.9478 23.1338 13.9478H24.8662C25 13.9478 25.124 14.019 25.1914 14.1353L25.7538 15.1092L26.646 14.4246C26.7528 14.343 26.8947 14.3246 27.0183 14.3758L28.6188 15.0388C28.7424 15.09 28.8297 15.2033 28.8474 15.3365L28.9968 16.4694L30.1079 16.1717C30.2377 16.1372 30.3757 16.1745 30.4705 16.2691L31.6954 17.4941C31.79 17.5887 31.8273 17.7268 31.7927 17.8566L31.4971 18.9604L32.6376 19.1106C32.7708 19.1284 32.884 19.2157 32.9353 19.3393L33.5981 20.9399C33.6494 21.0635 33.631 21.2053 33.5494 21.3121L33.0217 22H43.5C44.6025 22 45.5 22.897 45.5 24ZM27.7422 29.421C27.7076 29.2912 27.7449 29.1531 27.8396 29.0585L29.0646 27.8334C29.1592 27.7388 29.2972 27.7015 29.427 27.7361L29.5032 27.7565L27.6528 26.5822L24.375 28.4749V30.3022H24.8662C25 30.3022 25.124 30.3735 25.1914 30.4897L25.3416 30.7499L25.3816 30.446C25.3994 30.3129 25.4868 30.1996 25.6104 30.1484L27.211 29.4854C27.3345 29.4342 27.4763 29.4526 27.5832 29.5342L27.8216 29.717L27.7422 29.421H27.7422ZM22.8086 30.4898C22.876 30.3735 23 30.3023 23.1338 30.3023H23.625V28.4749L20.3159 26.5642L18.5106 27.3651C18.5061 27.4385 18.4861 27.5101 18.4398 27.5706L18.2532 27.8139L18.5435 27.7361C18.6733 27.7015 18.8114 27.7388 18.906 27.8334L20.1311 29.0585C20.2256 29.1531 20.2629 29.2912 20.2284 29.421L20.1492 29.7171L20.3875 29.5342C20.4942 29.4526 20.636 29.4342 20.7596 29.4854L22.3602 30.1484C22.4839 30.1996 22.5711 30.3129 22.5889 30.4461L22.6344 30.7914L22.8086 30.4898ZM14.6831 24.6347L15.8081 25.2851L16.9331 24.6347V23.3359L15.8081 22.6855L14.6831 23.3359V24.6347ZM17.6831 23.1191V24.8515C17.6831 24.9853 17.6118 25.1093 17.4956 25.1767L17.2302 25.33L17.5281 25.3692C17.6611 25.387 17.7744 25.4743 17.8257 25.5979L18.2632 26.6542L19.9629 25.9001V22.1148L18.3848 21.0524L17.8369 22.375C17.7857 22.4986 17.6724 22.5858 17.5393 22.6037L17.2354 22.6437L17.4956 22.7939C17.6118 22.8613 17.6831 22.9853 17.6831 23.1191V23.1191ZM20.2493 18.5582C20.2837 18.6881 20.2465 18.8261 20.1519 18.9207L18.9268 20.1458C18.8323 20.2404 18.6941 20.2777 18.5642 20.2431L18.4983 20.2254L20.353 21.474L23.625 19.5847V17.6978H23.1338C23 17.6978 22.876 17.6265 22.8086 17.5103L22.6553 17.2449L22.6161 17.5428C22.5983 17.6759 22.511 17.7892 22.3874 17.8404L20.7869 18.5034C20.6632 18.5546 20.5214 18.5362 20.4147 18.4546L20.1714 18.268L20.2493 18.5583L20.2493 18.5582ZM24.8662 17.6978H24.375V19.5847L27.647 21.474L29.5217 20.2122L29.4062 20.2431C29.2765 20.2777 29.1384 20.2404 29.0437 20.1458L27.8187 18.9207C27.7241 18.8261 27.6868 18.6881 27.7214 18.5582L27.7991 18.268L27.5559 18.4545C27.4492 18.5361 27.3074 18.5546 27.1837 18.5034L25.5833 17.8404C25.4596 17.7892 25.3723 17.6759 25.3545 17.5427L25.3208 17.2863L25.1914 17.5103C25.124 17.6265 25 17.6978 24.8662 17.6978L24.8662 17.6978ZM27.2871 25.9278V22.1319L24 20.2344L20.7129 22.1319V25.9278L24 27.8252L27.2871 25.9278ZM30.4426 25.3692L30.7405 25.33L30.4751 25.1767C30.3589 25.1093 30.2876 24.9853 30.2876 24.8515V23.1191C30.2876 22.9853 30.3589 22.8613 30.4751 22.7939L30.7351 22.6437L30.4314 22.6036C30.2981 22.5858 30.1848 22.4985 30.1337 22.3749L29.5923 21.0681L28.0371 22.1148V25.9379L29.5946 26.9263L30.1449 25.5979C30.196 25.4743 30.3095 25.387 30.4426 25.3692V25.3692ZM33.2876 23.3359L32.1626 22.6855L31.0376 23.3359V24.6347L32.1626 25.2851L33.2876 24.6347V23.3359ZM32.3253 19.8266L31.0371 19.6563L30.3992 20.4886L30.416 20.5137L30.3414 20.5639L30.2466 20.6876L30.7437 21.8877L32.0319 22.058L32.8223 21.0266L32.3253 19.8266L32.3253 19.8266ZM30.0934 16.9527L28.8379 17.2883L28.5025 18.5437L29.4208 19.4621L30.6761 19.1265L31.0117 17.8711L30.0934 16.9527ZM25.9002 15.9422L26.0706 17.2304L27.2705 17.7275L28.3019 16.937L28.1315 15.6488L26.9315 15.1517L25.9002 15.9422ZM22.7002 15.8228L23.3506 16.9478H24.6494L25.2998 15.8228L24.6494 14.6978H23.3506L22.7002 15.8228ZM19.6687 16.937L20.7002 17.7275L21.9002 17.2304L22.0704 15.9422L21.0391 15.1517L19.8391 15.6488L19.6687 16.937ZM16.9587 17.8711L17.2944 19.1265L18.5498 19.4621L19.4683 18.5437L19.1326 17.2883L17.8772 16.9527L16.9587 17.8711ZM15.1482 21.0266L15.9387 22.058L17.2271 21.8877L17.724 20.6876L17.5974 20.5224L17.5293 20.4766L17.5447 20.4537L16.9336 19.6563L15.6453 19.8266L15.1482 21.0266ZM4.50001 25H13.9728C13.952 24.953 13.9331 24.9045 13.9331 24.8515V23.1191C13.9331 23.0766 13.9514 23.039 13.9649 23H4.5C3.94824 23 3.5 23.4488 3.5 24C3.5 24.5513 3.94824 25 4.5 25H4.50001ZM15.634 28.1462L16.9224 28.3166L17.7128 27.2852L17.2157 26.0852L15.9275 25.9149L15.137 26.9463L15.634 28.1462ZM17.8564 31.0265L19.1118 30.6909L19.4474 29.4355L18.5291 28.5171L17.2737 28.8527L16.938 30.1081L17.8565 31.0265H17.8564ZM22.0432 32.0466L21.8729 30.7583L20.6729 30.2613L19.6416 31.0518L19.8119 32.3401L21.0119 32.8371L22.0432 32.0466ZM25.2998 32.1773L24.6494 31.0523H23.3506L22.7002 32.1773L23.3506 33.3023H24.6494L25.2998 32.1773ZM28.3291 31.0518L27.2976 30.2613L26.0977 30.7583L25.9273 32.0466L26.9587 32.8371L28.1587 32.3401L28.3291 31.0518ZM31.0326 30.1081L30.697 28.8527L29.4417 28.5171L28.5232 29.4355L28.8588 30.6909L30.1143 31.0265L31.0326 30.1081H31.0326ZM32.8336 26.9463L32.0432 25.9149L30.7549 26.0852L30.2578 27.2852L31.0483 28.3166L32.3366 28.1462L32.8336 26.9463ZM44.5 24C44.5 23.4488 44.0518 23 43.5 23H34.0056C34.0193 23.039 34.0376 23.0766 34.0376 23.1191V24.8515C34.0376 24.9045 34.0186 24.953 33.9978 25H43.5C44.0518 25 44.5 24.5513 44.5 24H44.5Z" fill="black"></path></svg></svg>